<svg width="22" height="23" viewBox="0 0 22 23" fill="none" xmlns="http://www.w3.org/2000/svg">
<g clip-path="url(#clip0_431_3181)">
<path d="M21.9883 11.8576C21.9883 10.9563 21.9135 10.2986 21.7515 9.6165H11.219V13.6847H17.4014C17.2768 14.6956 16.6037 16.2182 15.1079 17.2413L15.087 17.3775L18.4171 19.8985L18.6478 19.921C20.7668 18.0087 21.9883 15.195 21.9883 11.8576Z" fill="#4285F4"/>
<path d="M11.2189 22.5763C14.2478 22.5763 16.7905 21.6018 18.6477 19.921L15.1078 17.2413C14.1605 17.8868 12.8891 18.3375 11.2189 18.3375C8.25243 18.3375 5.73464 16.4252 4.83711 13.7821L4.70555 13.7931L1.2428 16.4118L1.19752 16.5348C3.04223 20.1158 6.83143 22.5763 11.2189 22.5763Z" fill="#1FAC82"/>
<path d="M4.83708 13.7821C4.60026 13.1001 4.46321 12.3692 4.46321 11.614C4.46321 10.8588 4.60026 10.128 4.82462 9.44595L4.81835 9.30069L1.3122 6.63986L1.19749 6.69318C0.437191 8.17919 0.000930786 9.84792 0.000930786 11.614C0.000930786 13.3802 0.437191 15.0488 1.19749 16.5348L4.83708 13.7821Z" fill="#FBBC05"/>
<path d="M11.2189 4.89049C13.3254 4.89049 14.7463 5.77964 15.5565 6.52269L18.7225 3.50197C16.7781 1.73584 14.2478 0.651794 11.2189 0.651794C6.83143 0.651794 3.04223 3.11218 1.19752 6.69314L4.82465 9.44591C5.73464 6.80281 8.25243 4.89049 11.2189 4.89049Z" fill="#EB4335"/>
</g>
<defs>
<clipPath id="clip0_431_3181">
<rect width="22" height="22" fill="white" transform="translate(0 0.651794)"/>
</clipPath>
</defs>
</svg>
