<svg width="26" height="26" viewBox="0 0 26 26" fill="none" xmlns="http://www.w3.org/2000/svg">
<path d="M2.48083 8.42829V18.9691C2.48083 21.0275 3.94334 21.8725 5.72 20.8541L8.26584 19.4025C8.81834 19.0883 9.73917 19.0558 10.3133 19.3483L16.0008 22.1975C16.575 22.4791 17.4958 22.4575 18.0483 22.1433L22.7392 19.4566C23.335 19.11 23.8333 18.265 23.8333 17.5716V7.03079C23.8333 4.97245 22.3708 4.12745 20.5942 5.14579L18.0483 6.59745C17.4958 6.91162 16.575 6.94412 16.0008 6.65162L10.3133 3.81329C9.73917 3.53162 8.81834 3.55329 8.26584 3.86745L3.575 6.55412C2.96833 6.90079 2.48083 7.74579 2.48083 8.42829Z" stroke="#292D32" stroke-width="1.1875" stroke-linecap="round" stroke-linejoin="round"/>
<path d="M9.27332 4.33331V18.4166" stroke="#292D32" stroke-width="1.1875" stroke-linecap="round" stroke-linejoin="round"/>
<path d="M17.0408 7.17163V21.6666" stroke="#292D32" stroke-width="1.1875" stroke-linecap="round" stroke-linejoin="round"/>
</svg>
