<svg width="22" height="20" viewBox="0 0 22 20" fill="none" xmlns="http://www.w3.org/2000/svg">
<path d="M7.27334 0.618347V16.1425C6.905 16.1533 6.53667 16.24 6.26584 16.4025L3.72 17.8542C1.94334 18.8725 0.480835 18.0275 0.480835 15.9692V5.42835C0.480835 4.74585 0.968335 3.90085 1.575 3.55418L6.26584 0.867514C6.53667 0.715847 6.905 0.629181 7.27334 0.618347Z" fill="#1FAC82"/>
<path d="M15.0408 3.85752V19.3817C14.6616 19.3925 14.2933 19.3275 14.0008 19.1867L8.31332 16.3375C8.02082 16.1967 7.65248 16.1317 7.27332 16.1425V0.618348C7.65248 0.607515 8.02082 0.672515 8.31332 0.813348L14.0008 3.66252C14.2933 3.80335 14.6616 3.86835 15.0408 3.85752Z" fill="#FFB31C"/>
<path d="M21.8333 4.03082V14.5717C21.8333 15.2542 21.3458 16.0992 20.7392 16.4458L16.0483 19.1325C15.7775 19.2842 15.4092 19.3708 15.0408 19.3817V3.85749C15.4092 3.84666 15.7775 3.75999 16.0483 3.59749L18.5942 2.14582C20.3708 1.12749 21.8333 1.97249 21.8333 4.03082Z" fill="#1FAC82"/>
</svg>
