<svg width="26" height="26" viewBox="0 0 26 26" fill="none" xmlns="http://www.w3.org/2000/svg">
<path d="M20.9516 15.6975L19.8683 13.8992C19.6408 13.4983 19.435 12.74 19.435 12.2958V9.555C19.435 6.02333 16.5641 3.14166 13.0216 3.14166C9.47915 3.14166 6.60831 6.02333 6.60831 9.555V12.2958C6.60831 12.74 6.40248 13.4983 6.17498 13.8883L5.08081 15.6975C4.64748 16.4233 4.54998 17.225 4.82081 17.9617C5.08081 18.6875 5.69831 19.2508 6.49998 19.5217C8.60165 20.2367 10.8116 20.5833 13.0216 20.5833C15.2316 20.5833 17.4416 20.2367 19.5433 19.5325C20.3016 19.2833 20.8866 18.7092 21.1683 17.9617C21.45 17.2142 21.3741 16.3908 20.9516 15.6975Z" fill="#1FAC82"/>
<path d="M15.4375 3.59669C14.69 3.30419 13.8775 3.14169 13.0217 3.14169C12.1767 3.14169 11.3642 3.29335 10.6167 3.59669C11.0825 2.71919 12.0034 2.16669 13.0217 2.16669C14.0509 2.16669 14.9609 2.71919 15.4375 3.59669Z" fill="#FFB31C"/>
<path d="M16.0658 21.6775C15.6108 22.9342 14.4083 23.8334 12.9999 23.8334C12.1441 23.8334 11.2991 23.4867 10.7033 22.8692C10.3566 22.5442 10.0966 22.1109 9.94495 21.6667C10.0858 21.6884 10.2266 21.6992 10.3783 21.7209C10.6274 21.7534 10.8874 21.7859 11.1474 21.8075C11.7649 21.8617 12.3933 21.8942 13.0216 21.8942C13.6391 21.8942 14.2566 21.8617 14.8633 21.8075C15.0908 21.7859 15.3183 21.775 15.5349 21.7425C15.7083 21.7209 15.8816 21.6992 16.0658 21.6775Z" fill="#FFB31C"/>
</svg>
