<svg width="26" height="26" viewBox="0 0 26 26" fill="none" xmlns="http://www.w3.org/2000/svg">
<path d="M13 23.8442C18.983 23.8442 23.8333 18.9939 23.8333 13.0108C23.8333 7.02774 18.983 2.17749 13 2.17749C7.01687 2.17749 2.16663 7.02774 2.16663 13.0108C2.16663 18.9939 7.01687 23.8442 13 23.8442Z" fill="#1FAC82"/>
<path d="M13 7.51831C10.7575 7.51831 8.9375 9.33831 8.9375 11.5808C8.9375 13.78 10.66 15.5675 12.9458 15.6325C12.9783 15.6325 13.0217 15.6325 13.0433 15.6325C13.065 15.6325 13.0975 15.6325 13.1192 15.6325C13.13 15.6325 13.1408 15.6325 13.1408 15.6325C15.3292 15.5566 17.0517 13.78 17.0625 11.5808C17.0625 9.33831 15.2425 7.51831 13 7.51831Z" fill="#FFB31C"/>
<path d="M20.345 20.9733C18.4167 22.75 15.8384 23.8442 13 23.8442C10.1617 23.8442 7.58336 22.75 5.65503 20.9733C5.91503 19.9875 6.6192 19.0883 7.64836 18.395C10.6059 16.4233 15.4159 16.4233 18.3517 18.395C19.3917 19.0883 20.085 19.9875 20.345 20.9733Z" fill="#FFB31C"/>
</svg>
