<svg width="26" height="26" viewBox="0 0 26 26" fill="none" xmlns="http://www.w3.org/2000/svg">
<path d="M13.13 13.845C13.0542 13.8341 12.9567 13.8341 12.87 13.845C10.9633 13.78 9.44666 12.22 9.44666 10.3025C9.44666 8.34165 11.0283 6.74915 13 6.74915C14.9608 6.74915 16.5533 8.34165 16.5533 10.3025C16.5425 12.22 15.0367 13.78 13.13 13.845Z" stroke="black" stroke-width="1.625" stroke-linecap="round" stroke-linejoin="round"/>
<path d="M20.3017 20.9951C18.3734 22.7609 15.8167 23.8334 13 23.8334C10.1834 23.8334 7.6267 22.7609 5.69836 20.9951C5.8067 19.9767 6.4567 18.9801 7.61586 18.2001C10.5842 16.2284 15.4375 16.2284 18.3842 18.2001C19.5434 18.9801 20.1934 19.9767 20.3017 20.9951Z" stroke="black" stroke-width="1.625" stroke-linecap="round" stroke-linejoin="round"/>
<path d="M13 23.8334C18.983 23.8334 23.8333 18.9831 23.8333 13C23.8333 7.01693 18.983 2.16669 13 2.16669C7.01687 2.16669 2.16663 7.01693 2.16663 13C2.16663 18.9831 7.01687 23.8334 13 23.8334Z" stroke="black" stroke-width="1.625" stroke-linecap="round" stroke-linejoin="round"/>
</svg>
