<svg width="309" height="264" viewBox="0 0 309 264" fill="none" xmlns="http://www.w3.org/2000/svg">
<path d="M70.384 131.357C71.1785 131.407 71.9281 131.742 72.4948 132.301C73.3737 133.213 91.838 152.621 92.0993 153.137C92.3606 153.653 85.9095 153.656 85.2817 153.656C84.6539 153.656 71.1035 153.833 70.7438 153.137C70.384 152.441 70.384 131.357 70.384 131.357Z" fill="#1FAC82"/>
<path d="M57.9027 44.7611C57.9027 44.7611 58.2421 42.8608 61.6356 43.5836C65.0291 44.3064 77.8228 47.6219 78.2097 47.6999C78.5965 47.778 83.1744 47.3165 80.5003 50.2655L48.0207 86.0843C48.0207 86.0843 39.1636 93.5263 44.6475 102.567L56.0091 115.069L63.3493 122.731C63.3493 122.731 65.1072 121.761 64.7848 127.075C64.4624 132.389 65.0665 151.033 65.0665 151.033C65.0665 151.033 65.4058 152.666 63.3392 150.962C61.2725 149.258 33.476 119.253 33.476 119.253L20.3973 104.834C20.3973 104.834 16.2911 100.639 18.1372 93.2311C19.9833 85.823 29.0271 77.7396 29.0271 77.7396L57.9027 44.7611Z" fill="#1FAC82"/>
<path d="M132.031 134.028C126.521 137.582 121.238 141.477 116.214 145.692C107.588 136.624 91.5125 119.266 91.5125 119.266L78.4406 104.847C78.4406 104.847 74.3242 100.649 76.1771 93.241C76.211 93.1121 76.2416 92.9797 76.2857 92.8406C83.4121 102.166 93.2534 116.541 114.46 115.509L132.031 134.028Z" fill="#1FAC82"/>
<path d="M138.543 50.2513C136.745 52.2433 122.563 67.8774 113.55 77.817L106.084 86.0633C104.836 87.1927 103.761 88.4996 102.894 89.9422C96.1544 87.4106 89.391 84.9231 82.6956 82.2965C84.0686 80.6937 85.5349 79.1731 87.0868 77.7424L113.825 47.2005C114.116 47.1666 114.395 47.1462 114.686 47.1123C118.683 46.7183 122.655 46.1044 126.584 45.273C127.728 45.0252 128.878 44.7673 130.019 44.4958C134.091 46.7152 128.457 51.2592 136.266 47.6858C136.395 47.7061 136.945 47.6858 137.579 47.7163C138.838 47.8317 140.335 48.2729 138.543 50.2513Z" fill="#1FAC82"/>
<path d="M107.791 153.65H92.9545H71.9892H70.384" stroke="#CCDDE2" stroke-width="1.61533" stroke-miterlimit="10"/>
<path d="M43.2052 43.2338L13.1317 77.5934L5.58105 86.2232C3.08469 89.0758 1.73165 92.751 1.78238 96.5416C1.83315 100.332 3.28409 103.969 5.85592 106.754L44.6916 148.729C46.1298 150.28 47.872 151.517 49.8101 152.364C51.7481 153.21 53.8399 153.648 55.9548 153.649H64.778" stroke="#CCDDE2" stroke-width="1.61533" stroke-miterlimit="10"/>
<path d="M59.3245 43.1252L21.6155 86.2232C19.1192 89.0769 17.7667 92.7534 17.8187 96.5443C17.8707 100.336 19.3235 103.973 21.8972 106.758L60.7261 148.729C61.8996 149.99 63.276 151.045 64.7983 151.851" stroke="#CCDDE2" stroke-width="1.61533" stroke-miterlimit="10"/>
<path d="M64.7847 124.23L46.7582 105.43C44.458 103.079 43.1488 99.9339 43.1006 96.6449C43.0528 93.3558 44.2697 90.1741 46.5003 87.7565L82.1324 48.4661" stroke="#CCDDE2" stroke-width="1.61533" stroke-miterlimit="10"/>
<path d="M70.384 153.562C70.9172 153.619 71.453 153.648 71.9892 153.65H92.9545L70.384 130.089" stroke="#CCDDE2" stroke-width="1.61533" stroke-miterlimit="10"/>
<path d="M114.253 115.466L114.297 115.52L132.031 134.029" stroke="#CCDDE2" stroke-width="1.61533" stroke-miterlimit="10"/>
<path d="M114.662 47.1299L82.8547 82.3854" stroke="#CCDDE2" stroke-width="1.61533" stroke-miterlimit="10"/>
<path d="M76.1462 92.6472C75.5346 95.1133 75.5458 97.6931 76.1791 100.154C76.8123 102.615 78.0476 104.879 79.7738 106.744L115.976 145.885" stroke="#CCDDE2" stroke-width="1.61533" stroke-miterlimit="10"/>
<path d="M102.612 90.1799C102.666 90.0951 102.711 90.0102 102.775 89.922C103.229 89.1439 103.767 88.4176 104.38 87.7569L113.509 77.6781L113.597 77.5933" stroke="#CCDDE2" stroke-width="1.61533" stroke-miterlimit="10"/>
<path d="M13.132 77.5942C13.132 77.5942 16.2099 48.1552 43.2055 43.2345C50.7867 41.8568 58.5952 42.6746 66.0135 44.558C72.0981 46.0987 78.1149 48.1857 84.4269 48.5624C91.1461 48.9629 97.9603 48.3147 104.669 47.9176C107.696 47.7344 110.754 47.5206 113.801 47.2186C114.093 47.1846 114.372 47.1643 114.663 47.1303C118.66 46.7363 122.632 46.1221 126.561 45.291C127.705 45.0433 128.855 44.7854 129.995 44.5139C130.569 44.3951 131.139 44.256 131.709 44.1271" stroke="#CCDDE2" stroke-width="1.61533" stroke-miterlimit="10"/>
<path d="M228.052 240.042C243.404 226.715 252.774 204.559 256.113 184.564" stroke="#CCDDE2" stroke-width="1.61533" stroke-miterlimit="10"/>
<path d="M147.903 39.3452C154.086 37.6484 162.451 34.8114 173.629 30.1181C206.73 16.2046 218.509 29.5344 218.509 29.5344C220.446 31.2512 222.092 33.2704 223.382 35.5139C223.542 35.782 223.694 36.0602 223.833 36.3317C235.097 57.4463 215.01 80.4138 223.229 101.827C227.892 114.017 239.468 121.812 245.25 133.421C248.326 139.655 250.546 146.276 251.851 153.104" stroke="#CCDDE2" stroke-width="1.61533" stroke-miterlimit="10"/>
<path d="M131.258 38.6356C131.224 38.6373 131.19 38.6442 131.159 38.6561" stroke="#CCDDE2" stroke-width="1.61533" stroke-miterlimit="10"/>
<path d="M204.595 115.564C201.633 156.252 160.449 156.286 159.757 155.835C159.757 155.835 162.424 158.631 146.199 145.705C129.975 132.779 123.313 113.589 123.313 113.589C116.485 116.765 103.929 115.126 103.929 115.126C95.8188 112.682 89.0283 107.558 83.8396 102.349C90.9966 93.5633 89.6086 86.8441 89.069 85.1405C95.8765 87.9164 103.661 90.8552 106.841 91.198C113.007 91.8597 112.451 83.1044 112.451 83.1044C117.975 49.4574 137.492 47.7504 137.492 47.7504C158.633 45.3071 170.887 54.4222 181.092 77.2743C191.296 100.126 204.595 115.564 204.595 115.564Z" fill="#2E2E2E"/>
<path d="M165.152 245.38H128.023C127.297 245.003 126.718 244.392 126.38 243.646C126.042 242.9 125.964 242.062 126.16 241.266C126.356 240.471 126.813 239.765 127.459 239.261C128.105 238.757 128.901 238.484 129.72 238.488H138.73C138.73 238.488 138.37 238.227 137.712 237.721H158.833C161.959 241.566 164.283 244.342 165.152 245.38Z" fill="#1FAC82"/>
<path d="M299.448 187.989L297.701 207.522C297.684 207.644 297.663 207.759 297.647 207.892C297.161 211.787 295.037 211.832 295.037 211.832L296.944 215.975L296.785 217.736V228.009C296.785 228.752 297 229.479 297.405 230.102C297.809 230.726 298.386 231.219 299.064 231.522C299.743 231.824 300.495 231.924 301.229 231.809C301.963 231.694 302.648 231.369 303.202 230.873C303.911 230.244 304.359 229.372 304.457 228.429C305.268 220.862 307.145 203.429 307.145 203.429C307.881 199.757 301.413 190.201 299.448 187.989Z" fill="#1FAC82"/>
<path d="M168.298 160.745C149.206 176.695 125.411 179.858 127.8 190.466C130.257 201.325 148.68 225.182 158.844 237.714C161.946 241.569 164.274 244.338 165.156 245.36C165.38 245.652 165.495 245.791 165.495 245.791H129.721C129.122 245.794 128.533 245.646 128.007 245.36C127.288 244.977 126.718 244.366 126.388 243.622C126.057 242.879 125.984 242.046 126.181 241.256C126.378 240.467 126.833 239.766 127.475 239.264C128.116 238.763 128.907 238.491 129.721 238.491H138.734L137.716 237.714C130.834 232.427 91.2243 200.748 95.2253 175.843C96.9899 164.814 106.044 154.304 116.211 145.692C121.235 141.477 126.517 137.582 132.028 134.028C132.727 133.577 133.406 133.135 134.064 132.715" stroke="black" stroke-width="1.61533" stroke-miterlimit="10"/>
<path d="M70.3813 87.985V246.165C70.3813 246.907 70.0864 247.619 69.5614 248.144C69.0361 248.67 68.3242 248.965 67.5817 248.965C66.8391 248.965 66.1272 248.67 65.6019 248.144C65.0769 247.619 64.782 246.907 64.782 246.165V87.985C64.7833 87.4316 64.9486 86.891 65.2567 86.4315C65.5649 85.972 66.002 85.6136 66.5134 85.4022C67.0248 85.1905 67.5871 85.1352 68.1301 85.2427C68.6727 85.3503 69.1715 85.616 69.5635 86.0066C69.8244 86.2652 70.0315 86.5737 70.1719 86.9134C70.3124 87.2531 70.3834 87.6175 70.3813 87.985Z" stroke="black" stroke-width="1.61533" stroke-miterlimit="10"/>
<path d="M84.1345 245.794C84.1362 248.95 83.2356 252.041 81.5395 254.702C79.8431 257.363 77.4214 259.484 74.56 260.815C71.6982 262.146 68.5161 262.631 65.3879 262.214C62.2598 261.796 59.3159 260.494 56.9034 258.459C54.4909 256.425 52.71 253.743 51.7707 250.73C50.8313 247.717 50.7726 244.498 51.6017 241.453C52.4307 238.408 54.1125 235.663 56.4493 233.542C58.7861 231.421 61.6805 230.012 64.7913 229.481V246.164C64.7913 246.906 65.0862 247.618 65.6112 248.143C66.1365 248.668 66.8485 248.963 67.591 248.963C68.3335 248.963 69.0455 248.668 69.5708 248.143C70.0958 247.618 70.3907 246.906 70.3907 246.164V229.481C74.2379 230.142 77.7275 232.141 80.2428 235.127C82.7578 238.112 84.1362 241.89 84.1345 245.794Z" stroke="black" stroke-width="1.61533" stroke-miterlimit="10"/>
<path d="M207.405 262.351C216.55 262.351 223.963 254.939 223.963 245.794C223.963 236.65 216.55 229.237 207.405 229.237C198.261 229.237 190.848 236.65 190.848 245.794C190.848 254.939 198.261 262.351 207.405 262.351Z" stroke="black" stroke-width="1.61533" stroke-miterlimit="10"/>
<path d="M153.407 73.0056C150.929 89.6849 140.325 109.154 123.394 114.129C122.13 114.501 120.842 114.789 119.539 114.991C117.853 115.253 116.153 115.426 114.449 115.51C93.2562 116.528 83.4047 102.166 76.2749 92.8409C73.0884 88.6431 70.438 85.4769 67.5739 85.185" stroke="black" stroke-width="1.61533" stroke-miterlimit="10"/>
<path d="M64.7845 87.9837V89.2326C64.7974 90.1186 64.5062 90.9826 63.9599 91.6803C63.4135 92.378 62.6445 92.8674 61.7812 93.0673C61.2243 93.1874 60.6478 93.1813 60.0939 93.0496C59.5398 92.9176 59.0223 92.6634 58.5794 92.3054C58.1362 91.9474 57.7792 91.4947 57.5339 90.9806C57.2888 90.4665 57.1619 89.9042 57.1626 89.3344V88.3774C57.1626 84.9092 58.6795 81.3969 61.4045 79.2148C66.315 75.2647 72.8917 78.3868 77.9107 80.4094C79.4955 81.0575 81.0769 81.6819 82.6617 82.3064C89.3571 84.933 96.1205 87.4204 102.86 89.952L105.348 90.8886C106.016 91.1472 106.734 91.2514 107.448 91.193C108.163 91.1346 108.855 90.9154 109.472 90.552C110.09 90.1882 110.617 89.6897 111.015 89.0931C111.412 88.4969 111.67 87.8181 111.768 87.1082C112.199 84.149 112.759 80.9998 113.523 77.8269C116.699 64.5378 123.279 50.6785 137.461 47.7499L137.545 47.7295C155.29 44.1426 171.766 55.8842 178.587 71.6812C184.488 85.3673 191.693 98.592 200.672 110.52C217.365 132.694 231.438 141.985 255.064 154.887C271.495 163.867 287.896 174.909 300.439 188.999C302.411 191.219 307.905 199.757 307.148 203.429C307.148 203.429 305.275 220.861 304.467 228.432C304.366 229.416 303.89 230.323 303.138 230.965C302.386 231.607 301.416 231.934 300.428 231.88C299.441 231.826 298.513 231.394 297.835 230.674C297.158 229.954 296.784 229 296.791 228.011V217.739C296.793 217.028 296.71 216.32 296.543 215.628C294.819 207.745 283.987 200.273 278.333 196.472C267.094 188.933 254.732 183.22 241.707 179.545C231.221 176.572 220.721 175.958 210.062 174.292C209.34 174.183 208.619 174.07 207.897 173.952C194.275 171.577 180.664 167.199 168.301 160.762C154.951 153.815 143.04 144.473 134.081 132.731C129.719 127.032 126.127 120.783 123.398 114.145" stroke="black" stroke-width="1.61533" stroke-miterlimit="10"/>
<path d="M84.1382 245.794H155.935H190.93" stroke="black" stroke-width="1.61533" stroke-miterlimit="10"/>
<path d="M207.486 248.957C209.031 248.957 210.283 247.705 210.283 246.161C210.283 244.616 209.031 243.364 207.486 243.364C205.942 243.364 204.69 244.616 204.69 246.161C204.69 247.705 205.942 248.957 207.486 248.957Z" stroke="black" stroke-width="1.61533" stroke-miterlimit="10"/>
<path d="M223.962 245.794H228.836C228.836 240.111 226.578 234.661 222.56 230.643C218.542 226.624 213.092 224.367 207.409 224.367C201.726 224.367 196.276 226.624 192.258 230.643C188.239 234.661 185.982 240.111 185.982 245.794" stroke="black" stroke-width="1.61533" stroke-miterlimit="10"/>
<path d="M46.1506 245.794C46.1486 240.596 48.0378 235.573 51.4659 231.665C54.8938 227.757 59.6267 225.23 64.7812 224.554" stroke="black" stroke-width="1.61533" stroke-miterlimit="10"/>
<path d="M70.3809 224.554C75.5333 225.232 80.2632 227.76 83.6886 231.669C87.1141 235.577 89.0012 240.597 88.9978 245.794H84.1349" stroke="black" stroke-width="1.61533" stroke-miterlimit="10"/>
<path d="M117.477 12.6307C118.851 14.0594 121.091 14.28 122.961 14.2257C125.336 14.1612 127.739 13.7438 130.087 13.4113L131.503 13.4316H131.523C131.795 13.4496 132.06 13.5205 132.304 13.641C132.549 13.7615 132.767 13.9291 132.946 14.1341C133.125 14.3391 133.263 14.5773 133.35 14.8352C133.437 15.0931 133.472 15.3659 133.454 15.6374C133.286 18.6869 132.781 21.7085 131.951 24.6473L134.56 26.2931C134.974 25.3362 134.672 23.9177 135.51 23.8566C136.108 22.8996 136.942 22.3057 138.134 23.127C140.468 24.7321 141.147 29.0351 138.677 30.8235L139.993 33.7318C140.94 35.8358 144.863 36.8369 147.103 36.3177C146.329 34.2442 144.174 32.9581 144.174 32.9581C147.73 33.8336 150.544 29.5102 149.627 26.6936C149.006 24.7627 149.139 23.3 150.265 21.5354C150.34 21.4166 149.672 21.196 149.739 21.0807C149.862 19.7436 149.583 18.2776 148.983 17.548C147.927 16.2483 145.65 15.8716 146.241 14.0492C146.501 13.2541 146.633 12.4224 146.631 11.5855C146.58 10.4877 146.295 9.41367 145.793 8.43531C145.292 7.45729 144.587 6.59771 143.726 5.91493C141.914 4.55751 139.718 5.53145 137.696 5.36517C135.239 5.17853 133.624 2.98969 131.041 2.7759C129.758 2.6707 128.693 3.11525 127.559 3.65143C126.606 4.11635 125.666 4.61181 124.746 5.15138C123.826 5.69095 123.015 6.16944 121.967 6.09139C120.609 6.02012 119.337 5.07333 117.935 5.37875C117.232 5.52263 116.599 5.89932 116.137 6.44771C115.529 8.54831 116.147 11.2496 117.477 12.6307Z" fill="#1FAC82"/>
<path d="M134.573 25.995C134.63 25.8321 134.688 25.676 134.756 25.4995V25.4792C134.945 24.9213 135.19 24.3834 135.485 23.874C136.09 22.9171 136.918 22.3232 138.115 23.141C140.454 24.7496 141.126 29.0526 138.662 30.8478L139.975 33.7492C140.022 33.8572 140.078 33.9617 140.141 34.0614C140.871 35.3272 142.459 36.2333 144.261 36.3283H144.292C144.942 36.3599 145.594 36.2842 146.219 36.1044" stroke="black" stroke-width="1.61533" stroke-linecap="round" stroke-linejoin="round"/>
<path d="M120.218 19.1363C120.218 19.1363 124.796 18.3151 126.537 21.8512" stroke="black" stroke-width="1.61533" stroke-miterlimit="10"/>
<path d="M120.856 29.4149C119.617 29.6661 117.965 29.8595 117.103 28.7362L119.424 24.5757C119.989 23.5563 120.19 22.375 119.994 21.2263C119.675 19.2954 118.752 16.3294 120.109 13.8997" stroke="black" stroke-width="1.61533" stroke-miterlimit="10"/>
<path d="M124.276 23.8719C124.655 23.3276 124.444 22.5247 123.805 22.0791C123.165 21.6336 122.339 21.7137 121.959 22.258C121.58 22.8026 121.792 23.6052 122.431 24.0508C123.071 24.4964 123.897 24.4163 124.276 23.8719Z" fill="black"/>
<path d="M131.529 49.787L131.258 38.4763" stroke="black" stroke-width="1.61533" stroke-miterlimit="10"/>
<path d="M134.542 26.3034C134.542 26.1982 134.566 26.093 134.573 25.9878C134.579 25.8826 134.603 25.7672 134.606 25.6484" stroke="black" stroke-width="1.61533" stroke-linecap="round" stroke-linejoin="round"/>
<path d="M134.543 26.3027L133.647 25.7428L131.933 24.6569" stroke="black" stroke-width="1.61533" stroke-linecap="round" stroke-linejoin="round"/>
<path d="M126.811 30.1184C126.811 30.1184 126.523 33.1149 123.007 34.1262" stroke="black" stroke-width="1.61533" stroke-miterlimit="10"/>
<path d="M144.157 32.9683C147.713 33.8438 150.527 29.5204 149.61 26.7038C148.989 24.7729 149.122 23.3103 150.248 21.5456C150.323 21.4268 150.387 21.3081 150.452 21.2063C150.87 20.4739 151.058 19.6334 150.992 18.7928C150.926 17.9522 150.609 17.151 150.082 16.4926C149.064 15.1013 147.428 14.5278 148.046 12.641C148.318 11.8224 148.455 10.9652 148.453 10.1026C148.401 8.97084 148.106 7.86319 147.588 6.85497C147.071 5.84675 146.343 4.96137 145.453 4.25891C143.59 2.83702 141.32 3.86526 139.226 3.69558C136.705 3.49197 135.022 1.22169 132.375 1.01468C131.054 0.912877 129.948 1.35404 128.781 1.91737C127.797 2.40264 126.823 2.91507 125.886 3.46821C124.95 4.02136 124.091 4.50664 123.012 4.43877C121.6 4.35732 120.297 3.37998 118.861 3.70237C117.426 4.02476 116.51 5.12426 116.147 6.45792C115.556 8.54835 116.174 11.2496 117.504 12.6308C118.834 14.012 121.118 14.28 122.988 14.2257C125.364 14.1613 127.766 13.7439 130.114 13.4113L131.53 13.4317H131.55C132.094 13.4744 132.599 13.7299 132.956 14.1429C133.312 14.5563 133.491 15.0931 133.454 15.6375C133.285 18.6869 132.781 21.7085 131.95 24.6473" stroke="black" stroke-width="1.61533" stroke-miterlimit="10"/>
<path d="M134.471 35.6383C134.471 35.6383 128.634 42.4253 123.971 40.5012C119.308 38.5771 119.648 29.7471 119.648 29.7471" stroke="black" stroke-width="1.61533" stroke-linecap="round" stroke-linejoin="round"/>
<path d="M83.5304 102.058L83.8222 102.349C83.6355 102.594 83.4319 102.835 83.2181 103.079L83.5304 102.058Z" fill="#2E2E2E"/>
<path d="M89.0413 85.1407L88.797 85.0422L88.8954 84.7029C88.9545 84.8451 89.0033 84.9913 89.0413 85.1407Z" fill="#2E2E2E"/>
<path d="M67.5782 262.348H257.746" stroke="black" stroke-width="1.61533" stroke-miterlimit="10"/>
<path d="M144.628 33.0531L152.688 48.4971" stroke="black" stroke-width="1.61533" stroke-linecap="round" stroke-linejoin="round"/>
<path d="M241.236 142.078C241.236 142.078 272.992 155.737 279.376 164.187" stroke="black" stroke-width="1.61533" stroke-miterlimit="10"/>
<path d="M235.497 245.363H249.136" stroke="black" stroke-width="1.61533" stroke-miterlimit="10"/>
<path d="M242.314 241.542H262.774" stroke="black" stroke-width="1.61533" stroke-miterlimit="10"/>
<path d="M203.198 69.3233C215.71 69.3233 225.853 59.18 225.853 46.668C225.853 34.1557 215.71 24.0127 203.198 24.0127C190.685 24.0127 180.542 34.1557 180.542 46.668C180.542 59.18 190.685 69.3233 203.198 69.3233Z" stroke="#CCDDE2" stroke-width="1.61533" stroke-miterlimit="10"/>
<path d="M203.197 59.1121C210.07 59.1121 215.642 53.5406 215.642 46.668C215.642 39.7951 210.07 34.2239 203.197 34.2239C196.325 34.2239 190.753 39.7951 190.753 46.668C190.753 53.5406 196.325 59.1121 203.197 59.1121Z" stroke="#CCDDE2" stroke-width="1.61533" stroke-miterlimit="10"/>
<path d="M203.197 48.8019C204.375 48.8019 205.331 47.8463 205.331 46.6674C205.331 45.4888 204.375 44.5328 203.197 44.5328C202.018 44.5328 201.062 45.4888 201.062 46.6674C201.062 47.8463 202.018 48.8019 203.197 48.8019Z" stroke="#CCDDE2" stroke-width="1.61533" stroke-miterlimit="10"/>
<path d="M207.612 39.5447L204.32 44.8522" stroke="#CCDDE2" stroke-width="1.61533" stroke-miterlimit="10"/>
<path d="M203.198 34.2239V36.4365" stroke="#CCDDE2" stroke-width="1.61533" stroke-miterlimit="10"/>
<path d="M215.641 46.6685H213.544" stroke="#CCDDE2" stroke-width="1.61533" stroke-miterlimit="10"/>
<path d="M203.198 59.1121V56.9606" stroke="#CCDDE2" stroke-width="1.61533" stroke-miterlimit="10"/>
<path d="M190.753 46.6685H192.644" stroke="#CCDDE2" stroke-width="1.61533" stroke-miterlimit="10"/>
</svg>
